<?xml version="1.0" encoding="UTF-8" standalone="no"?>
<!-- Created with Inkscape (http://www.inkscape.org/) -->

<svg
   xmlns:dc="http://purl.org/dc/elements/1.1/"
   xmlns:cc="http://creativecommons.org/ns#"
   xmlns:rdf="http://www.w3.org/1999/02/22-rdf-syntax-ns#"
   xmlns:svg="http://www.w3.org/2000/svg"
   xmlns="http://www.w3.org/2000/svg"
   xmlns:sodipodi="http://sodipodi.sourceforge.net/DTD/sodipodi-0.dtd"
   xmlns:inkscape="http://www.inkscape.org/namespaces/inkscape"
   width="163.0764mm"
   height="43.73595mm"
   viewBox="0 0 163.0764 43.73595"
   version="1.1"
   id="svg8"
   sodipodi:docname="AS_logo_Shadow - Copy.svg"
   inkscape:version="0.92.2 (5c3e80d, 2017-08-06)">
  <sodipodi:namedview
     id="base"
     pagecolor="#ffffff"
     bordercolor="#666666"
     borderopacity="1.0"
     inkscape:pageopacity="0.0"
     inkscape:pageshadow="2"
     inkscape:zoom="0.5"
     inkscape:cx="461.58019"
     inkscape:cy="60.659359"
     inkscape:document-units="mm"
     inkscape:current-layer="layer1"
     showgrid="false"
     inkscape:window-width="1366"
     inkscape:window-height="705"
     inkscape:window-x="-8"
     inkscape:window-y="-8"
     inkscape:window-maximized="1"
     fit-margin-top="0"
     fit-margin-left="0"
     fit-margin-right="0"
     fit-margin-bottom="0" />
  <defs
     id="defs2">
    <filter
       inkscape:collect="always"
       style="color-interpolation-filters:sRGB"
       id="filter2172"
       x="-0.025595332"
       width="1.0511907"
       y="-0.081767358"
       height="1.1635346">
      <feGaussianBlur
         inkscape:collect="always"
         stdDeviation="0.42812113"
         id="feGaussianBlur2174" />
    </filter>
    <filter
       inkscape:collect="always"
       style="color-interpolation-filters:sRGB"
       id="filter2244"
       x="-0.32372257"
       width="1.6474452"
       y="-0.64625347"
       height="2.2925069">
      <feGaussianBlur
         inkscape:collect="always"
         stdDeviation="0.67442204"
         id="feGaussianBlur2246" />
    </filter>
    <filter
       inkscape:collect="always"
       style="color-interpolation-filters:sRGB"
       id="filter2252"
       x="-0.099127859"
       width="1.1982557"
       y="-0.092527337"
       height="1.1850547">
      <feGaussianBlur
         inkscape:collect="always"
         stdDeviation="19.739165"
         id="feGaussianBlur2254" />
    </filter>
    <filter
       inkscape:collect="always"
       style="color-interpolation-filters:sRGB"
       id="filter2256"
       x="-0.15553308"
       width="1.3110662"
       y="-0.29085246"
       height="1.5817049">
      <feGaussianBlur
         inkscape:collect="always"
         stdDeviation="0.67442204"
         id="feGaussianBlur2258" />
    </filter>
    <filter
       inkscape:collect="always"
       style="color-interpolation-filters:sRGB"
       id="filter2260"
       x="-0.056985524"
       width="1.113971"
       y="-0.10250144"
       height="1.2050029">
      <feGaussianBlur
         inkscape:collect="always"
         stdDeviation="0.67442204"
         id="feGaussianBlur2262" />
    </filter>
    <filter
       inkscape:collect="always"
       style="color-interpolation-filters:sRGB"
       id="filter2264"
       x="-0.065741435"
       width="1.131483"
       y="-0.12442645"
       height="1.2488528">
      <feGaussianBlur
         inkscape:collect="always"
         stdDeviation="0.67442204"
         id="feGaussianBlur2266" />
    </filter>
    <filter
       inkscape:collect="always"
       style="color-interpolation-filters:sRGB"
       id="filter2268"
       x="-0.32372257"
       width="1.6474452"
       y="-0.64625347"
       height="2.2925069">
      <feGaussianBlur
         inkscape:collect="always"
         stdDeviation="0.67442204"
         id="feGaussianBlur2270" />
    </filter>
    <filter
       inkscape:collect="always"
       style="color-interpolation-filters:sRGB"
       id="filter2272"
       x="-2.2473121"
       width="5.4946241"
       y="-1.8845879"
       height="4.769176">
      <feGaussianBlur
         inkscape:collect="always"
         stdDeviation="0.67442204"
         id="feGaussianBlur2274" />
    </filter>
    <filter
       inkscape:collect="always"
       style="color-interpolation-filters:sRGB"
       id="filter2276"
       x="-0.099127859"
       width="1.1982557"
       y="-0.092527337"
       height="1.1850547">
      <feGaussianBlur
         inkscape:collect="always"
         stdDeviation="19.739165"
         id="feGaussianBlur2278" />
    </filter>
    <filter
       inkscape:collect="always"
       style="color-interpolation-filters:sRGB"
       id="filter2280"
       x="-0.15553308"
       width="1.3110662"
       y="-0.29085246"
       height="1.5817049">
      <feGaussianBlur
         inkscape:collect="always"
         stdDeviation="0.67442204"
         id="feGaussianBlur2282" />
    </filter>
    <filter
       inkscape:collect="always"
       style="color-interpolation-filters:sRGB"
       id="filter2284"
       x="-0.056985524"
       width="1.113971"
       y="-0.10250144"
       height="1.2050029">
      <feGaussianBlur
         inkscape:collect="always"
         stdDeviation="0.67442204"
         id="feGaussianBlur2286" />
    </filter>
    <filter
       inkscape:collect="always"
       style="color-interpolation-filters:sRGB"
       id="filter2288"
       x="-0.065741435"
       width="1.131483"
       y="-0.12442645"
       height="1.2488528">
      <feGaussianBlur
         inkscape:collect="always"
         stdDeviation="0.67442204"
         id="feGaussianBlur2290" />
    </filter>
  </defs>
  <metadata
     id="metadata5">
    <rdf:RDF>
      <cc:Work
         rdf:about="">
        <dc:format>image/svg+xml</dc:format>
        <dc:type
           rdf:resource="http://purl.org/dc/dcmitype/StillImage" />
        <dc:title />
      </cc:Work>
    </rdf:RDF>
  </metadata>
  <g
     inkscape:groupmode="layer"
     id="layer2"
     inkscape:label="Coloured Text"
     transform="translate(119.64448,-194.3369)" />
  <g
     id="layer1"
     inkscape:groupmode="layer"
     inkscape:label="Black-Arranged-Text"
     transform="translate(119.64448,-194.3369)">
    <text
       id="text2325"
       y="224.65535"
       x="-116.56787"
       style="font-style:normal;font-weight:normal;font-size:10.58333302px;line-height:1.25;font-family:sans-serif;letter-spacing:0px;word-spacing:0px;fill:#002255;fill-opacity:1;stroke:none;stroke-width:0.26458332"
       xml:space="preserve"><tspan
         style="font-style:normal;font-variant:normal;font-weight:normal;font-stretch:normal;font-size:35.27777863px;font-family:'Urdu Typesetting';-inkscape-font-specification:'Urdu Typesetting';fill:#002255;stroke-width:0.26458332"
         y="224.65535"
         x="-116.56787"
         id="tspan2323"
         sodipodi:role="line">AL</tspan></text>
    <text
       id="text2329"
       y="208.78035"
       x="-47.525208"
       style="font-style:normal;font-weight:normal;font-size:10.58333302px;line-height:1.25;font-family:sans-serif;letter-spacing:0px;word-spacing:0px;fill:#002255;fill-opacity:1;stroke:none;stroke-width:0.26458332"
       xml:space="preserve"><tspan
         style="font-style:normal;font-variant:normal;font-weight:normal;font-stretch:normal;font-size:14.11111069px;font-family:'Tw Cen MT';-inkscape-font-specification:'Tw Cen MT';text-align:center;text-anchor:middle;fill:#002255;stroke-width:0.26458332"
         y="208.78035"
         x="-47.525208"
         id="tspan2327"
         sodipodi:role="line">IMDAAD</tspan><tspan
         id="tspan2331"
         style="font-style:normal;font-variant:normal;font-weight:normal;font-stretch:normal;font-size:14.11111069px;font-family:'Tw Cen MT';-inkscape-font-specification:'Tw Cen MT';text-align:center;text-anchor:middle;fill:#002255;stroke-width:0.26458332"
         y="226.41924"
         x="-47.525208"
         sodipodi:role="line">SOCIETY</tspan></text>
    <text
       id="text2335"
       y="215.35716"
       x="-18.671751"
       style="font-style:normal;font-weight:normal;font-size:10.58333302px;line-height:1.25;font-family:sans-serif;letter-spacing:0px;word-spacing:0px;fill:#002255;fill-opacity:1;stroke:none;stroke-width:0.26458332"
       xml:space="preserve"><tspan
         style="font-style:normal;font-variant:normal;font-weight:normal;font-stretch:normal;font-size:14.11111069px;font-family:serif;-inkscape-font-specification:serif;fill:#002255;stroke-width:0.26458332"
         y="215.35716"
         x="-18.671751"
         id="tspan2333"
         sodipodi:role="line">org</tspan><tspan
         id="tspan2337"
         style="fill:#002255;stroke-width:0.26458332"
         y="230.12624"
         x="-18.671751"
         sodipodi:role="line" /></text>
    <flowRoot
       style="font-style:normal;font-weight:normal;font-size:40px;line-height:1.25;font-family:sans-serif;letter-spacing:0px;word-spacing:0px;fill:#483737;fill-opacity:1;stroke:none"
       id="flowRoot2339"
       xml:space="preserve"
       transform="translate(-157.1625,100.0125)"><flowRegion
         id="flowRegion2341"
         style="fill:#483737"><rect
           y="333.94824"
           x="294.28571"
           height="245.71428"
           width="414.28571"
           id="rect2343"
           style="fill:#483737" /></flowRegion><flowPara
         id="flowPara2345" /></flowRoot>    <g
       id="g3842"
       transform="matrix(0.05858868,0,0,0.05858868,6.6107067,197.68175)"
       inkscape:transform-center-x="-9.1235632"
       inkscape:transform-center-y="-55.197549">
      <g
         id="g3782">
        <g
           id="g3780">
          <g
             id="g3778">
            <path
               id="path3772"
               d="m 476.379,343.416 c -11.629,-7.263 -26.457,-8.008 -38.781,-1.991 L 350.23,383.83 v -4.608 c 0,-22.15 -16.967,-39.603 -39.117,-39.603 h -84.619 c -17.265,0 -34.919,-2.873 -51.411,-7.976 l -55.124,-17.18 v -22.227 c 0,-7.105 -4.688,-13.079 -11.793,-13.079 H 30.982 c -7.105,0 -13.936,5.974 -13.936,13.079 v 204.543 c 0,7.105 6.832,12.649 13.936,12.649 h 77.186 c 7.105,0 11.793,-5.546 11.793,-12.649 v -20.594 l 9.203,6.855 c 23.314,18.75 53.165,28.96 83.085,28.96 h 74.352 c 26.605,0 52.282,-7.813 74.255,-22.81 l 116.866,-79.707 c 10.791,-7.365 17.232,-19.532 17.232,-32.594 0,-13.714 -6.944,-26.209 -18.575,-33.473 z M 94.23,483.698 H 42.773 V 304.884 H 94.23 Z M 463.218,388.289 346.352,467.94 c -17.681,12.068 -38.343,18.332 -59.751,18.332 h -74.352 c -24.074,0 -48.201,-8.195 -66.961,-23.283 L 119.959,443.166 V 341.395 l 47.517,14.825 c 18.959,5.869 39.171,9.127 59.019,9.127 h 84.619 c 7.963,0 13.388,5.911 13.388,13.874 v 15.552 c -15.437,4.217 -51.568,11.686 -88.128,5.803 -7.01,-1.126 -13.353,3.642 -14.481,10.657 -1.128,7.015 3.774,13.616 10.789,14.745 11.186,1.8 22.3,2.521 32.835,2.521 41.39,0 74.818,-11.146 76.985,-11.885 0.003,-10e-4 0.023,-0.003 0.026,-0.003 0.012,-0.004 0.045,-0.013 0.055,-0.015 0.476,-0.163 0.937,-0.358 1.38,-0.57 0.032,-0.015 0.068,-0.024 0.099,-0.04 l 105.351,-51.443 c 4.36,-2.129 9.221,-1.876 13.336,0.695 4.115,2.571 6.476,6.827 6.476,11.68 0,4.553 -2.246,8.803 -6.007,11.371 z"
               inkscape:connector-curvature="0" />
            <path
               id="path3774"
               d="m 36.692,169.017 c 11.632,7.263 25.6,8.014 37.923,1.998 l 86.511,-42.398 v 4.608 c 0,22.15 18.682,40.444 40.833,40.444 h 84.619 c 17.266,0 34.061,2.452 50.553,7.557 l 54.267,16.76 v 22.227 c 0,7.105 6.403,12.633 13.508,12.633 h 77.186 c 7.105,0 12.221,-5.528 12.221,-12.633 V 15.669 C 494.312,8.564 489.196,2.573 482.091,2.573 h -77.186 c -7.105,0 -13.508,5.991 -13.508,13.096 v 20.594 l -8.345,-7.078 C 359.736,10.434 330.741,0 300.821,0 H 226.469 C 199.866,0 174.188,8.034 152.212,23.034 L 35.348,102.853 c -10.789,7.365 -17.23,19.586 -17.23,32.65 -10e-4,13.713 6.944,26.249 18.574,33.514 z M 417.125,28.302 h 51.457 V 207.116 H 417.125 Z M 49.853,124.156 166.719,44.283 C 184.401,32.215 205.064,25.729 226.47,25.729 h 74.352 c 24.074,0 47.345,8.417 66.105,23.506 l 24.469,20.047 v 101.771 l -46.658,-14.404 c -18.958,-5.869 -38.314,-8.708 -58.161,-8.708 h -84.619 c -7.963,0 -15.104,-6.753 -15.104,-14.716 v -15.553 c 16.724,-4.217 52.422,-11.686 88.986,-5.802 7.008,1.127 13.782,-3.643 14.911,-10.657 1.128,-7.015 -3.56,-13.616 -10.575,-14.745 -55.072,-8.865 -106.854,8.399 -109.679,9.361 -0.005,0.001 0.012,0.003 0.006,0.005 -0.013,0.005 -0.023,0.012 -0.033,0.015 -0.266,0.091 -0.5,0.195 -0.726,0.304 -0.248,0.103 -0.498,0.188 -0.741,0.306 l -105.35,51.443 c -4.361,2.128 -9.219,1.876 -13.334,-0.695 -4.115,-2.571 -6.475,-6.827 -6.475,-11.678 0.002,-4.554 2.248,-8.805 6.009,-11.373 z"
               inkscape:connector-curvature="0" />
          </g>
        </g>
      </g>
      <g
         id="g3784" />
      <g
         id="g3786" />
      <g
         id="g3788" />
      <g
         id="g3790" />
      <g
         id="g3792" />
      <g
         id="g3794" />
      <g
         id="g3796" />
      <g
         id="g3798" />
      <g
         id="g3800" />
      <g
         id="g3802" />
      <g
         id="g3804" />
      <g
         id="g3806" />
      <g
         id="g3808" />
      <g
         id="g3810" />
      <g
         id="g3812" />
    </g>
    <text
       xml:space="preserve"
       style="font-style:normal;font-weight:normal;font-size:10.58333302px;line-height:1.25;font-family:sans-serif;letter-spacing:0px;word-spacing:0px;fill:#000000;fill-opacity:1;stroke:none;stroke-width:0.26458332"
       x="-22.060705"
       y="215.4536"
       id="text3848"><tspan
         sodipodi:role="line"
         id="tspan3846"
         x="-22.060705"
         y="225.1091"
         style="stroke-width:0.26458332" /></text>
    <text
       xml:space="preserve"
       style="font-style:normal;font-weight:normal;font-size:10.58333302px;line-height:1.25;font-family:sans-serif;letter-spacing:0px;word-spacing:0px;fill:#000000;fill-opacity:1;stroke:none;stroke-width:0.26458332"
       x="-23.42922"
       y="199.48735"
       id="text3852"><tspan
         sodipodi:role="line"
         id="tspan3850"
         x="-23.42922"
         y="209.14285"
         style="stroke-width:0.26458332" /></text>
    <ellipse
       style="opacity:0.2;fill:#483737;fill-opacity:1;fill-rule:evenodd;stroke:#999999;stroke-width:0.26499999;stroke-linejoin:round;stroke-miterlimit:4;stroke-dasharray:none;stroke-opacity:1;paint-order:markers fill stroke"
       id="path3858"
       cx="22.042727"
       cy="212.94461"
       rx="20.071838"
       ry="18.475214" />
    <path
       id="path4161"
       d="m 22.579127,209.97716 h 1.20853 l 0.46284,-0.69567 h -4.53716 l -0.46284,0.69567 h 0.78757 c 0.7978,0 1.53409,0.0616 1.82854,0.72878 h -2.15327 l -0.46284,0.69571 h 2.70297 c -6e-5,0.002 -6e-5,0.003 -6e-5,0.005 0,0.49995 -0.41548,1.26682 -1.78742,1.26682 l -0.6638,-7.8e-4 7.3e-4,0.64999 2.65849,3.32274 h 1.18391 l -2.7516,-3.43754 c 1.13269,-0.0611 2.19501,-0.69402 2.34814,-1.80579 h 0.8458 l 0.46284,-0.69571 h -1.32072 c -0.0533,-0.26806 -0.16912,-0.52734 -0.35065,-0.72878 z"
       inkscape:connector-curvature="0"
       style="fill:#00222b;stroke-width:0.02945404" />
    <text
       xml:space="preserve"
       style="font-style:normal;font-weight:normal;font-size:10.58333302px;line-height:1.25;font-family:sans-serif;letter-spacing:0px;word-spacing:0px;fill:#002255;fill-opacity:1;stroke:none;stroke-width:0.26458332"
       x="-116.56787"
       y="224.65535"
       id="text856"><tspan
         sodipodi:role="line"
         id="tspan854"
         x="-116.56787"
         y="224.65535"
         style="font-style:normal;font-variant:normal;font-weight:normal;font-stretch:normal;font-size:35.27777863px;font-family:'Urdu Typesetting';-inkscape-font-specification:'Urdu Typesetting';fill:#002255;stroke-width:0.26458332">AL</tspan></text>
    <text
       xml:space="preserve"
       style="font-style:normal;font-weight:normal;font-size:10.58333302px;line-height:1.25;font-family:sans-serif;letter-spacing:0px;word-spacing:0px;fill:#1a1a1a;fill-opacity:1;stroke:none;stroke-width:0.26458332;"
       x="-47.525208"
       y="208.78035"
       id="text862"><tspan
         sodipodi:role="line"
         id="tspan858"
         x="-47.525208"
         y="208.78035"
         style="font-style:normal;font-variant:normal;font-weight:normal;font-stretch:normal;font-size:14.11111069px;font-family:'Tw Cen MT';-inkscape-font-specification:'Tw Cen MT';text-align:center;text-anchor:middle;fill:#1a1a1a;stroke-width:0.26458332;">IMDAAD</tspan><tspan
         sodipodi:role="line"
         x="-47.525208"
         y="226.41924"
         style="font-style:normal;font-variant:normal;font-weight:normal;font-stretch:normal;font-size:14.11111069px;font-family:'Tw Cen MT';-inkscape-font-specification:'Tw Cen MT';text-align:center;text-anchor:middle;fill:#1a1a1a;stroke-width:0.26458332;"
         id="tspan860">SOCIETY</tspan></text>
    <flowRoot
       transform="translate(-157.1625,100.0125)"
       xml:space="preserve"
       id="flowRoot876"
       style="font-style:normal;font-weight:normal;font-size:40px;line-height:1.25;font-family:sans-serif;letter-spacing:0px;word-spacing:0px;fill:#483737;fill-opacity:1;stroke:none"><flowRegion
         style="fill:#483737"
         id="flowRegion872"><rect
           style="fill:#483737"
           id="rect870"
           width="414.28571"
           height="245.71428"
           x="294.28571"
           y="333.94824" /></flowRegion><flowPara
         id="flowPara874" /></flowRoot>    <g
       inkscape:transform-center-y="-55.197549"
       inkscape:transform-center-x="-9.1235632"
       transform="matrix(0.05858868,0,0,0.05858868,6.6107067,197.68175)"
       id="g918">
      <g
         id="g886">
        <g
           id="g884">
          <g
             id="g882">
            <path
               inkscape:connector-curvature="0"
               d="m 476.379,343.416 c -11.629,-7.263 -26.457,-8.008 -38.781,-1.991 L 350.23,383.83 v -4.608 c 0,-22.15 -16.967,-39.603 -39.117,-39.603 h -84.619 c -17.265,0 -34.919,-2.873 -51.411,-7.976 l -55.124,-17.18 v -22.227 c 0,-7.105 -4.688,-13.079 -11.793,-13.079 H 30.982 c -7.105,0 -13.936,5.974 -13.936,13.079 v 204.543 c 0,7.105 6.832,12.649 13.936,12.649 h 77.186 c 7.105,0 11.793,-5.546 11.793,-12.649 v -20.594 l 9.203,6.855 c 23.314,18.75 53.165,28.96 83.085,28.96 h 74.352 c 26.605,0 52.282,-7.813 74.255,-22.81 l 116.866,-79.707 c 10.791,-7.365 17.232,-19.532 17.232,-32.594 0,-13.714 -6.944,-26.209 -18.575,-33.473 z M 94.23,483.698 H 42.773 V 304.884 H 94.23 Z M 463.218,388.289 346.352,467.94 c -17.681,12.068 -38.343,18.332 -59.751,18.332 h -74.352 c -24.074,0 -48.201,-8.195 -66.961,-23.283 L 119.959,443.166 V 341.395 l 47.517,14.825 c 18.959,5.869 39.171,9.127 59.019,9.127 h 84.619 c 7.963,0 13.388,5.911 13.388,13.874 v 15.552 c -15.437,4.217 -51.568,11.686 -88.128,5.803 -7.01,-1.126 -13.353,3.642 -14.481,10.657 -1.128,7.015 3.774,13.616 10.789,14.745 11.186,1.8 22.3,2.521 32.835,2.521 41.39,0 74.818,-11.146 76.985,-11.885 0.003,-10e-4 0.023,-0.003 0.026,-0.003 0.012,-0.004 0.045,-0.013 0.055,-0.015 0.476,-0.163 0.937,-0.358 1.38,-0.57 0.032,-0.015 0.068,-0.024 0.099,-0.04 l 105.351,-51.443 c 4.36,-2.129 9.221,-1.876 13.336,0.695 4.115,2.571 6.476,6.827 6.476,11.68 0,4.553 -2.246,8.803 -6.007,11.371 z"
               id="path878" />
            <path
               inkscape:connector-curvature="0"
               d="m 36.692,169.017 c 11.632,7.263 25.6,8.014 37.923,1.998 l 86.511,-42.398 v 4.608 c 0,22.15 18.682,40.444 40.833,40.444 h 84.619 c 17.266,0 34.061,2.452 50.553,7.557 l 54.267,16.76 v 22.227 c 0,7.105 6.403,12.633 13.508,12.633 h 77.186 c 7.105,0 12.221,-5.528 12.221,-12.633 V 15.669 C 494.312,8.564 489.196,2.573 482.091,2.573 h -77.186 c -7.105,0 -13.508,5.991 -13.508,13.096 v 20.594 l -8.345,-7.078 C 359.736,10.434 330.741,0 300.821,0 H 226.469 C 199.866,0 174.188,8.034 152.212,23.034 L 35.348,102.853 c -10.789,7.365 -17.23,19.586 -17.23,32.65 -10e-4,13.713 6.944,26.249 18.574,33.514 z M 417.125,28.302 h 51.457 V 207.116 H 417.125 Z M 49.853,124.156 166.719,44.283 C 184.401,32.215 205.064,25.729 226.47,25.729 h 74.352 c 24.074,0 47.345,8.417 66.105,23.506 l 24.469,20.047 v 101.771 l -46.658,-14.404 c -18.958,-5.869 -38.314,-8.708 -58.161,-8.708 h -84.619 c -7.963,0 -15.104,-6.753 -15.104,-14.716 v -15.553 c 16.724,-4.217 52.422,-11.686 88.986,-5.802 7.008,1.127 13.782,-3.643 14.911,-10.657 1.128,-7.015 -3.56,-13.616 -10.575,-14.745 -55.072,-8.865 -106.854,8.399 -109.679,9.361 -0.005,0.001 0.012,0.003 0.006,0.005 -0.013,0.005 -0.023,0.012 -0.033,0.015 -0.266,0.091 -0.5,0.195 -0.726,0.304 -0.248,0.103 -0.498,0.188 -0.741,0.306 l -105.35,51.443 c -4.361,2.128 -9.219,1.876 -13.334,-0.695 -4.115,-2.571 -6.475,-6.827 -6.475,-11.678 0.002,-4.554 2.248,-8.805 6.009,-11.373 z"
               id="path880" />
          </g>
        </g>
      </g>
      <g
         id="g888" />
      <g
         id="g890" />
      <g
         id="g892" />
      <g
         id="g894" />
      <g
         id="g896" />
      <g
         id="g898" />
      <g
         id="g900" />
      <g
         id="g902" />
      <g
         id="g904" />
      <g
         id="g906" />
      <g
         id="g908" />
      <g
         id="g910" />
      <g
         id="g912" />
      <g
         id="g914" />
      <g
         id="g916" />
    </g>
    <text
       id="text922"
       y="215.4536"
       x="-22.060705"
       style="font-style:normal;font-weight:normal;font-size:10.58333302px;line-height:1.25;font-family:sans-serif;letter-spacing:0px;word-spacing:0px;fill:#000000;fill-opacity:1;stroke:none;stroke-width:0.26458332"
       xml:space="preserve"><tspan
         style="stroke-width:0.26458332"
         y="225.1091"
         x="-22.060705"
         id="tspan920"
         sodipodi:role="line" /></text>
    <text
       id="text926"
       y="199.48735"
       x="-23.42922"
       style="font-style:normal;font-weight:normal;font-size:10.58333302px;line-height:1.25;font-family:sans-serif;letter-spacing:0px;word-spacing:0px;fill:#000000;fill-opacity:1;stroke:none;stroke-width:0.26458332"
       xml:space="preserve"><tspan
         style="stroke-width:0.26458332"
         y="209.14285"
         x="-23.42922"
         id="tspan924"
         sodipodi:role="line" /></text>
    <text
       id="text930"
       y="213.84785"
       x="-21.987692"
       style="font-style:normal;font-weight:normal;font-size:10.58333302px;line-height:1.25;font-family:sans-serif;letter-spacing:0px;word-spacing:0px;fill:#002255;fill-opacity:1;stroke:none;stroke-width:0.26458332"
       xml:space="preserve"><tspan
         style="fill:#002255;stroke-width:0.26458332"
         y="213.84785"
         x="-21.987692"
         id="tspan928"
         sodipodi:role="line">.</tspan></text>
    <path
       style="fill:#00222b;stroke-width:0.02945404"
       inkscape:connector-curvature="0"
       d="m 22.579127,209.97716 h 1.20853 l 0.46284,-0.69567 h -4.53716 l -0.46284,0.69567 h 0.78757 c 0.7978,0 1.53409,0.0616 1.82854,0.72878 h -2.15327 l -0.46284,0.69571 h 2.70297 c -6e-5,0.002 -6e-5,0.003 -6e-5,0.005 0,0.49995 -0.41548,1.26682 -1.78742,1.26682 l -0.6638,-7.8e-4 7.3e-4,0.64999 2.65849,3.32274 h 1.18391 l -2.7516,-3.43754 c 1.13269,-0.0611 2.19501,-0.69402 2.34814,-1.80579 h 0.8458 l 0.46284,-0.69571 h -1.32072 c -0.0533,-0.26806 -0.16912,-0.52734 -0.35065,-0.72878 z"
       id="path934" />
    <text
       xml:space="preserve"
       style="font-style:normal;font-weight:normal;font-size:6.17179775px;line-height:1.25;font-family:sans-serif;letter-spacing:0px;word-spacing:0px;opacity:0.2;fill:#002255;fill-opacity:1;stroke:none;stroke-width:0.15429494;filter:url(#filter2288)"
       x="-67.977951"
       y="413.76187"
       id="text938"
       transform="matrix(1.7191424,0,0,0.36931392,0.00192268,83.29582)"><tspan
         sodipodi:role="line"
         id="tspan936"
         x="-67.977951"
         y="413.76187"
         style="font-style:normal;font-variant:normal;font-weight:normal;font-stretch:normal;font-size:20.57266045px;font-family:'Urdu Typesetting';-inkscape-font-specification:'Urdu Typesetting';fill:#002255;stroke-width:0.15429494">AL</tspan></text>
    <text
       xml:space="preserve"
       style="font-style:normal;font-weight:normal;font-size:6.17179775px;line-height:1.25;font-family:sans-serif;letter-spacing:0px;word-spacing:0px;opacity:0.2;fill:#002255;fill-opacity:1;stroke:none;stroke-width:0.15429494;filter:url(#filter2284)"
       x="-27.714895"
       y="404.50418"
       id="text944"
       transform="matrix(1.7191424,0,0,0.36931392,0.00192268,83.29582)"><tspan
         sodipodi:role="line"
         id="tspan940"
         x="-27.714895"
         y="404.50418"
         style="font-style:normal;font-variant:normal;font-weight:normal;font-stretch:normal;font-size:8.22906399px;font-family:'Tw Cen MT';-inkscape-font-specification:'Tw Cen MT';text-align:center;text-anchor:middle;fill:#002255;stroke-width:0.15429494">IMDAAD</tspan><tspan
         sodipodi:role="line"
         x="-27.714895"
         y="414.7905"
         style="font-style:normal;font-variant:normal;font-weight:normal;font-stretch:normal;font-size:8.22906399px;font-family:'Tw Cen MT';-inkscape-font-specification:'Tw Cen MT';text-align:center;text-anchor:middle;fill:#002255;stroke-width:0.15429494"
         id="tspan942">SOCIETY</tspan></text>
    <text
       xml:space="preserve"
       style="font-style:normal;font-weight:normal;font-size:6.17179775px;line-height:1.25;font-family:sans-serif;letter-spacing:0px;word-spacing:0px;opacity:0.2;fill:#002255;fill-opacity:1;stroke:none;stroke-width:0.15429494;filter:url(#filter2280)"
       x="-11.814426"
       y="408.33954"
       id="text950"
       transform="matrix(1.7191424,0,0,0.36931392,0.00192268,83.29582)"><tspan
         sodipodi:role="line"
         id="tspan946"
         x="-11.814426"
         y="408.33954"
         style="font-style:normal;font-variant:normal;font-weight:normal;font-stretch:normal;font-size:8.22906399px;font-family:serif;-inkscape-font-specification:serif;fill:#002255;stroke-width:0.15429494">org</tspan><tspan
         sodipodi:role="line"
         x="-11.814426"
         y="416.9523"
         style="fill:#002255;stroke-width:0.15429494"
         id="tspan948" /></text>
    <flowRoot
       transform="matrix(1,0,0,0.34007794,-157.1625,195.19781)"
       xml:space="preserve"
       id="flowRoot958"
       style="font-style:normal;font-weight:normal;font-size:40px;line-height:1.25;font-family:sans-serif;letter-spacing:0px;word-spacing:0px;fill:#483737;fill-opacity:1;stroke:none"><flowRegion
         style="fill:#483737"
         id="flowRegion954"><rect
           style="fill:#483737"
           id="rect952"
           width="414.28571"
           height="245.71428"
           x="294.28571"
           y="333.94824" /></flowRegion><flowPara
         id="flowPara956" /></flowRoot>    <g
       inkscape:transform-center-y="-8.2237067"
       inkscape:transform-center-x="-9.223875"
       transform="matrix(0.05923285,0,0,0.00872895,6.4989156,232.25741)"
       id="g1000"
       style="opacity:0.2;filter:url(#filter2276)">
      <g
         id="g968">
        <g
           id="g966">
          <g
             id="g964">
            <path
               inkscape:connector-curvature="0"
               d="m 476.379,343.416 c -11.629,-7.263 -26.457,-8.008 -38.781,-1.991 L 350.23,383.83 v -4.608 c 0,-22.15 -16.967,-39.603 -39.117,-39.603 h -84.619 c -17.265,0 -34.919,-2.873 -51.411,-7.976 l -55.124,-17.18 v -22.227 c 0,-7.105 -4.688,-13.079 -11.793,-13.079 H 30.982 c -7.105,0 -13.936,5.974 -13.936,13.079 v 204.543 c 0,7.105 6.832,12.649 13.936,12.649 h 77.186 c 7.105,0 11.793,-5.546 11.793,-12.649 v -20.594 l 9.203,6.855 c 23.314,18.75 53.165,28.96 83.085,28.96 h 74.352 c 26.605,0 52.282,-7.813 74.255,-22.81 l 116.866,-79.707 c 10.791,-7.365 17.232,-19.532 17.232,-32.594 0,-13.714 -6.944,-26.209 -18.575,-33.473 z M 94.23,483.698 H 42.773 V 304.884 H 94.23 Z M 463.218,388.289 346.352,467.94 c -17.681,12.068 -38.343,18.332 -59.751,18.332 h -74.352 c -24.074,0 -48.201,-8.195 -66.961,-23.283 L 119.959,443.166 V 341.395 l 47.517,14.825 c 18.959,5.869 39.171,9.127 59.019,9.127 h 84.619 c 7.963,0 13.388,5.911 13.388,13.874 v 15.552 c -15.437,4.217 -51.568,11.686 -88.128,5.803 -7.01,-1.126 -13.353,3.642 -14.481,10.657 -1.128,7.015 3.774,13.616 10.789,14.745 11.186,1.8 22.3,2.521 32.835,2.521 41.39,0 74.818,-11.146 76.985,-11.885 0.003,-10e-4 0.023,-0.003 0.026,-0.003 0.012,-0.004 0.045,-0.013 0.055,-0.015 0.476,-0.163 0.937,-0.358 1.38,-0.57 0.032,-0.015 0.068,-0.024 0.099,-0.04 l 105.351,-51.443 c 4.36,-2.129 9.221,-1.876 13.336,0.695 4.115,2.571 6.476,6.827 6.476,11.68 0,4.553 -2.246,8.803 -6.007,11.371 z"
               id="path960" />
            <path
               inkscape:connector-curvature="0"
               d="m 36.692,169.017 c 11.632,7.263 25.6,8.014 37.923,1.998 l 86.511,-42.398 v 4.608 c 0,22.15 18.682,40.444 40.833,40.444 h 84.619 c 17.266,0 34.061,2.452 50.553,7.557 l 54.267,16.76 v 22.227 c 0,7.105 6.403,12.633 13.508,12.633 h 77.186 c 7.105,0 12.221,-5.528 12.221,-12.633 V 15.669 C 494.312,8.564 489.196,2.573 482.091,2.573 h -77.186 c -7.105,0 -13.508,5.991 -13.508,13.096 v 20.594 l -8.345,-7.078 C 359.736,10.434 330.741,0 300.821,0 H 226.469 C 199.866,0 174.188,8.034 152.212,23.034 L 35.348,102.853 c -10.789,7.365 -17.23,19.586 -17.23,32.65 -10e-4,13.713 6.944,26.249 18.574,33.514 z M 417.125,28.302 h 51.457 V 207.116 H 417.125 Z M 49.853,124.156 166.719,44.283 C 184.401,32.215 205.064,25.729 226.47,25.729 h 74.352 c 24.074,0 47.345,8.417 66.105,23.506 l 24.469,20.047 v 101.771 l -46.658,-14.404 c -18.958,-5.869 -38.314,-8.708 -58.161,-8.708 h -84.619 c -7.963,0 -15.104,-6.753 -15.104,-14.716 v -15.553 c 16.724,-4.217 52.422,-11.686 88.986,-5.802 7.008,1.127 13.782,-3.643 14.911,-10.657 1.128,-7.015 -3.56,-13.616 -10.575,-14.745 -55.072,-8.865 -106.854,8.399 -109.679,9.361 -0.005,0.001 0.012,0.003 0.006,0.005 -0.013,0.005 -0.023,0.012 -0.033,0.015 -0.266,0.091 -0.5,0.195 -0.726,0.304 -0.248,0.103 -0.498,0.188 -0.741,0.306 l -105.35,51.443 c -4.361,2.128 -9.219,1.876 -13.334,-0.695 -4.115,-2.571 -6.475,-6.827 -6.475,-11.678 0.002,-4.554 2.248,-8.805 6.009,-11.373 z"
               id="path962" />
          </g>
        </g>
      </g>
      <g
         id="g970" />
      <g
         id="g972" />
      <g
         id="g974" />
      <g
         id="g976" />
      <g
         id="g978" />
      <g
         id="g980" />
      <g
         id="g982" />
      <g
         id="g984" />
      <g
         id="g986" />
      <g
         id="g988" />
      <g
         id="g990" />
      <g
         id="g992" />
      <g
         id="g994" />
      <g
         id="g996" />
      <g
         id="g998" />
    </g>
    <text
       id="text1004"
       y="402.04391"
       x="-12.864965"
       style="font-style:normal;font-weight:normal;font-size:6.17179775px;line-height:1.25;font-family:sans-serif;letter-spacing:0px;word-spacing:0px;fill:#000000;fill-opacity:1;stroke:none;stroke-width:0.15429494"
       xml:space="preserve"
       transform="scale(1.7147893,0.58316202)"><tspan
         style="stroke-width:0.15429494"
         y="407.67462"
         x="-12.864965"
         id="tspan1002"
         sodipodi:role="line" /></text>
    <text
       id="text1008"
       y="392.733"
       x="-13.663032"
       style="font-style:normal;font-weight:normal;font-size:6.17179775px;line-height:1.25;font-family:sans-serif;letter-spacing:0px;word-spacing:0px;fill:#000000;fill-opacity:1;stroke:none;stroke-width:0.15429494"
       xml:space="preserve"
       transform="scale(1.7147893,0.58316202)"><tspan
         style="stroke-width:0.15429494"
         y="398.36371"
         x="-13.663032"
         id="tspan1006"
         sodipodi:role="line" /></text>
    <text
       id="text1012"
       y="407.45935"
       x="-13.748158"
       style="font-style:normal;font-weight:normal;font-size:6.17179775px;line-height:1.25;font-family:sans-serif;letter-spacing:0px;word-spacing:0px;opacity:0.2;fill:#002255;fill-opacity:1;stroke:none;stroke-width:0.15429494;filter:url(#filter2272)"
       xml:space="preserve"
       transform="matrix(1.7191424,0,0,0.36931392,0.00192268,83.29582)"><tspan
         style="fill:#002255;stroke-width:0.15429494"
         y="407.45935"
         x="-13.748158"
         id="tspan1010"
         sodipodi:role="line">.</tspan></text>
    <ellipse
       ry="6.2830129"
       rx="20.071838"
       cy="237.30748"
       cx="22.042727"
       id="ellipse1014"
       style="opacity:0.2;fill:#483737;fill-opacity:1;fill-rule:evenodd;stroke:#999999;stroke-width:0.15453793;stroke-linejoin:round;stroke-miterlimit:4;stroke-dasharray:none;stroke-opacity:1;paint-order:markers fill stroke;filter:url(#filter2172)"
       transform="matrix(1.0109948,0,0,0.4652041,-0.18447414,124.27556)" />
    <path
       style="opacity:0.2;fill:#00222b;stroke-width:0.01717648;filter:url(#filter2268)"
       inkscape:connector-curvature="0"
       d="m 22.579127,236.29856 h 1.20853 l 0.46284,-0.23658 h -4.53716 l -0.46284,0.23658 h 0.78757 c 0.7978,0 1.53409,0.0209 1.82854,0.24784 h -2.15327 l -0.46284,0.2366 h 2.70297 c -6e-5,6.8e-4 -6e-5,0.001 -6e-5,0.002 0,0.17002 -0.41548,0.43081 -1.78742,0.43081 l -0.6638,-2.6e-4 7.3e-4,0.22104 2.65849,1.13 h 1.18391 l -2.7516,-1.16904 c 1.13269,-0.0208 2.19501,-0.23602 2.34814,-0.61411 h 0.8458 l 0.46284,-0.23659 h -1.32072 c -0.0533,-0.0912 -0.16912,-0.17934 -0.35065,-0.24784 z"
       id="path1016"
       transform="matrix(1.0109948,0,0,0.43809629,-0.18447414,130.56775)" />
    <text
       id="text1020"
       y="413.76187"
       x="-67.977951"
       style="font-style:normal;font-weight:normal;font-size:6.17179775px;line-height:1.25;font-family:sans-serif;letter-spacing:0px;word-spacing:0px;opacity:0.2;fill:#002255;fill-opacity:1;stroke:none;stroke-width:0.15429494;filter:url(#filter2264)"
       xml:space="preserve"
       transform="matrix(1.7191424,0,0,0.36931392,0.00192268,83.29582)"><tspan
         style="font-style:normal;font-variant:normal;font-weight:normal;font-stretch:normal;font-size:20.57266045px;font-family:'Urdu Typesetting';-inkscape-font-specification:'Urdu Typesetting';fill:#002255;stroke-width:0.15429494"
         y="413.76187"
         x="-67.977951"
         id="tspan1018"
         sodipodi:role="line">AL</tspan></text>
    <text
       id="text1026"
       y="404.50418"
       x="-27.714895"
       style="font-style:normal;font-weight:normal;font-size:6.17179775px;line-height:1.25;font-family:sans-serif;letter-spacing:0px;word-spacing:0px;opacity:0.2;fill:#000000;fill-opacity:1;stroke:none;stroke-width:0.15429494;filter:url(#filter2260);"
       xml:space="preserve"
       transform="matrix(1.7191424,0,0,0.36931392,0.00192268,83.29582)"><tspan
         style="font-style:normal;font-variant:normal;font-weight:normal;font-stretch:normal;font-size:8.22906399px;font-family:'Tw Cen MT';-inkscape-font-specification:'Tw Cen MT';text-align:center;text-anchor:middle;fill:#000000;stroke-width:0.15429494;fill-opacity:1;"
         y="404.50418"
         x="-27.714895"
         id="tspan1022"
         sodipodi:role="line">IMDAAD</tspan><tspan
         id="tspan1024"
         style="font-style:normal;font-variant:normal;font-weight:normal;font-stretch:normal;font-size:8.22906399px;font-family:'Tw Cen MT';-inkscape-font-specification:'Tw Cen MT';text-align:center;text-anchor:middle;fill:#000000;stroke-width:0.15429494;fill-opacity:1;"
         y="414.7905"
         x="-27.714895"
         sodipodi:role="line">SOCIETY</tspan></text>
    <text
       id="text1032"
       y="408.33954"
       x="-11.814426"
       style="font-style:normal;font-weight:normal;font-size:6.17179775px;line-height:1.25;font-family:sans-serif;letter-spacing:0px;word-spacing:0px;opacity:0.2;fill:#002255;fill-opacity:1;stroke:none;stroke-width:0.15429494;filter:url(#filter2256)"
       xml:space="preserve"
       transform="matrix(1.7191424,0,0,0.36931392,1.5894227,83.29582)"><tspan
         style="font-style:normal;font-variant:normal;font-weight:normal;font-stretch:normal;font-size:8.22906399px;font-family:serif;-inkscape-font-specification:serif;fill:#002255;stroke-width:0.15429494"
         y="408.33954"
         x="-11.814426"
         id="tspan1028"
         sodipodi:role="line">org</tspan><tspan
         id="tspan1030"
         style="fill:#002255;stroke-width:0.15429494"
         y="416.9523"
         x="-11.814426"
         sodipodi:role="line" /></text>
    <flowRoot
       style="font-style:normal;font-weight:normal;font-size:40px;line-height:1.25;font-family:sans-serif;letter-spacing:0px;word-spacing:0px;fill:#483737;fill-opacity:1;stroke:none"
       id="flowRoot1040"
       xml:space="preserve"
       transform="matrix(1,0,0,0.34007794,-157.1625,195.19781)"><flowRegion
         id="flowRegion1036"
         style="fill:#483737"><rect
           y="333.94824"
           x="294.28571"
           height="245.71428"
           width="414.28571"
           id="rect1034"
           style="fill:#483737" /></flowRegion><flowPara
         id="flowPara1038" /></flowRoot>    <g
       id="g1082"
       transform="matrix(0.05923285,0,0,0.00872895,6.4989156,232.25741)"
       inkscape:transform-center-x="-9.223875"
       inkscape:transform-center-y="-8.2237067"
       style="opacity:0.2;filter:url(#filter2252)">
      <g
         id="g1050">
        <g
           id="g1048">
          <g
             id="g1046">
            <path
               id="path1042"
               d="m 476.379,343.416 c -11.629,-7.263 -26.457,-8.008 -38.781,-1.991 L 350.23,383.83 v -4.608 c 0,-22.15 -16.967,-39.603 -39.117,-39.603 h -84.619 c -17.265,0 -34.919,-2.873 -51.411,-7.976 l -55.124,-17.18 v -22.227 c 0,-7.105 -4.688,-13.079 -11.793,-13.079 H 30.982 c -7.105,0 -13.936,5.974 -13.936,13.079 v 204.543 c 0,7.105 6.832,12.649 13.936,12.649 h 77.186 c 7.105,0 11.793,-5.546 11.793,-12.649 v -20.594 l 9.203,6.855 c 23.314,18.75 53.165,28.96 83.085,28.96 h 74.352 c 26.605,0 52.282,-7.813 74.255,-22.81 l 116.866,-79.707 c 10.791,-7.365 17.232,-19.532 17.232,-32.594 0,-13.714 -6.944,-26.209 -18.575,-33.473 z M 94.23,483.698 H 42.773 V 304.884 H 94.23 Z M 463.218,388.289 346.352,467.94 c -17.681,12.068 -38.343,18.332 -59.751,18.332 h -74.352 c -24.074,0 -48.201,-8.195 -66.961,-23.283 L 119.959,443.166 V 341.395 l 47.517,14.825 c 18.959,5.869 39.171,9.127 59.019,9.127 h 84.619 c 7.963,0 13.388,5.911 13.388,13.874 v 15.552 c -15.437,4.217 -51.568,11.686 -88.128,5.803 -7.01,-1.126 -13.353,3.642 -14.481,10.657 -1.128,7.015 3.774,13.616 10.789,14.745 11.186,1.8 22.3,2.521 32.835,2.521 41.39,0 74.818,-11.146 76.985,-11.885 0.003,-10e-4 0.023,-0.003 0.026,-0.003 0.012,-0.004 0.045,-0.013 0.055,-0.015 0.476,-0.163 0.937,-0.358 1.38,-0.57 0.032,-0.015 0.068,-0.024 0.099,-0.04 l 105.351,-51.443 c 4.36,-2.129 9.221,-1.876 13.336,0.695 4.115,2.571 6.476,6.827 6.476,11.68 0,4.553 -2.246,8.803 -6.007,11.371 z"
               inkscape:connector-curvature="0" />
            <path
               id="path1044"
               d="m 36.692,169.017 c 11.632,7.263 25.6,8.014 37.923,1.998 l 86.511,-42.398 v 4.608 c 0,22.15 18.682,40.444 40.833,40.444 h 84.619 c 17.266,0 34.061,2.452 50.553,7.557 l 54.267,16.76 v 22.227 c 0,7.105 6.403,12.633 13.508,12.633 h 77.186 c 7.105,0 12.221,-5.528 12.221,-12.633 V 15.669 C 494.312,8.564 489.196,2.573 482.091,2.573 h -77.186 c -7.105,0 -13.508,5.991 -13.508,13.096 v 20.594 l -8.345,-7.078 C 359.736,10.434 330.741,0 300.821,0 H 226.469 C 199.866,0 174.188,8.034 152.212,23.034 L 35.348,102.853 c -10.789,7.365 -17.23,19.586 -17.23,32.65 -10e-4,13.713 6.944,26.249 18.574,33.514 z M 417.125,28.302 h 51.457 V 207.116 H 417.125 Z M 49.853,124.156 166.719,44.283 C 184.401,32.215 205.064,25.729 226.47,25.729 h 74.352 c 24.074,0 47.345,8.417 66.105,23.506 l 24.469,20.047 v 101.771 l -46.658,-14.404 c -18.958,-5.869 -38.314,-8.708 -58.161,-8.708 h -84.619 c -7.963,0 -15.104,-6.753 -15.104,-14.716 v -15.553 c 16.724,-4.217 52.422,-11.686 88.986,-5.802 7.008,1.127 13.782,-3.643 14.911,-10.657 1.128,-7.015 -3.56,-13.616 -10.575,-14.745 -55.072,-8.865 -106.854,8.399 -109.679,9.361 -0.005,0.001 0.012,0.003 0.006,0.005 -0.013,0.005 -0.023,0.012 -0.033,0.015 -0.266,0.091 -0.5,0.195 -0.726,0.304 -0.248,0.103 -0.498,0.188 -0.741,0.306 l -105.35,51.443 c -4.361,2.128 -9.219,1.876 -13.334,-0.695 -4.115,-2.571 -6.475,-6.827 -6.475,-11.678 0.002,-4.554 2.248,-8.805 6.009,-11.373 z"
               inkscape:connector-curvature="0" />
          </g>
        </g>
      </g>
      <g
         id="g1052" />
      <g
         id="g1054" />
      <g
         id="g1056" />
      <g
         id="g1058" />
      <g
         id="g1060" />
      <g
         id="g1062" />
      <g
         id="g1064" />
      <g
         id="g1066" />
      <g
         id="g1068" />
      <g
         id="g1070" />
      <g
         id="g1072" />
      <g
         id="g1074" />
      <g
         id="g1076" />
      <g
         id="g1078" />
      <g
         id="g1080" />
    </g>
    <text
       xml:space="preserve"
       style="font-style:normal;font-weight:normal;font-size:6.17179775px;line-height:1.25;font-family:sans-serif;letter-spacing:0px;word-spacing:0px;fill:#000000;fill-opacity:1;stroke:none;stroke-width:0.15429494"
       x="-12.864965"
       y="402.04391"
       id="text1086"
       transform="scale(1.7147893,0.58316202)"><tspan
         sodipodi:role="line"
         id="tspan1084"
         x="-12.864965"
         y="407.67462"
         style="stroke-width:0.15429494" /></text>
    <text
       xml:space="preserve"
       style="font-style:normal;font-weight:normal;font-size:6.17179775px;line-height:1.25;font-family:sans-serif;letter-spacing:0px;word-spacing:0px;fill:#000000;fill-opacity:1;stroke:none;stroke-width:0.15429494"
       x="-13.663032"
       y="392.733"
       id="text1090"
       transform="scale(1.7147893,0.58316202)"><tspan
         sodipodi:role="line"
         id="tspan1088"
         x="-13.663032"
         y="398.36371"
         style="stroke-width:0.15429494" /></text>
    <path
       id="path1098"
       d="m 22.579127,236.29856 h 1.20853 l 0.46284,-0.23658 h -4.53716 l -0.46284,0.23658 h 0.78757 c 0.7978,0 1.53409,0.0209 1.82854,0.24784 h -2.15327 l -0.46284,0.2366 h 2.70297 c -6e-5,6.8e-4 -6e-5,0.001 -6e-5,0.002 0,0.17002 -0.41548,0.43081 -1.78742,0.43081 l -0.6638,-2.6e-4 7.3e-4,0.22104 2.65849,1.13 h 1.18391 l -2.7516,-1.16904 c 1.13269,-0.0208 2.19501,-0.23602 2.34814,-0.61411 h 0.8458 l 0.46284,-0.23659 h -1.32072 c -0.0533,-0.0912 -0.16912,-0.17934 -0.35065,-0.24784 z"
       inkscape:connector-curvature="0"
       style="opacity:0.2;fill:#00222b;stroke-width:0.01717648;filter:url(#filter2244)"
       transform="matrix(1.0109948,0,0,0.43809629,-0.18447414,130.56775)" />
  </g>
</svg>
