<?xml version="1.0" encoding="UTF-8" standalone="no"?>
<!-- Created with Inkscape (http://www.inkscape.org/) -->

<svg
   xmlns:dc="http://purl.org/dc/elements/1.1/"
   xmlns:cc="http://creativecommons.org/ns#"
   xmlns:rdf="http://www.w3.org/1999/02/22-rdf-syntax-ns#"
   xmlns:svg="http://www.w3.org/2000/svg"
   xmlns="http://www.w3.org/2000/svg"
   xmlns:sodipodi="http://sodipodi.sourceforge.net/DTD/sodipodi-0.dtd"
   xmlns:inkscape="http://www.inkscape.org/namespaces/inkscape"
   width="210mm"
   height="222.72681mm"
   viewBox="0 0 210 222.72681"
   version="1.1"
   id="svg8"
   inkscape:version="0.92.2 (5c3e80d, 2017-08-06)"
   sodipodi:docname="zakath 2.5_%1.svg">
  <defs
     id="defs2" />
  <sodipodi:namedview
     id="base"
     pagecolor="#ffffff"
     bordercolor="#666666"
     borderopacity="1.0"
     inkscape:pageopacity="0.0"
     inkscape:pageshadow="2"
     inkscape:zoom="0.5"
     inkscape:cx="336.29953"
     inkscape:cy="401.18469"
     inkscape:document-units="mm"
     inkscape:current-layer="layer1"
     showgrid="false"
     inkscape:window-width="1366"
     inkscape:window-height="705"
     inkscape:window-x="-8"
     inkscape:window-y="-8"
     inkscape:window-maximized="1" />
  <metadata
     id="metadata5">
    <rdf:RDF>
      <cc:Work
         rdf:about="">
        <dc:format>image/svg+xml</dc:format>
        <dc:type
           rdf:resource="http://purl.org/dc/dcmitype/StillImage" />
        <dc:title></dc:title>
      </cc:Work>
    </rdf:RDF>
  </metadata>
  <g
     inkscape:label="Layer 1"
     inkscape:groupmode="layer"
     id="layer1"
     transform="translate(-0.79366498,-1.5127735)">
    <g
       id="g3783"
       transform="matrix(0.63636231,0,0,0.63636231,-5.0405858,1.5127735)">
      <g
         id="XMLID_796_">
        <g
           id="XMLID_797_">
          <path
             d="m 175,149.161 c 0,-20.239 -40.48,-30.359 -50.599,0 C 114.281,179.52 175,220 175,220 Z"
             style="fill:#ff5023"
             id="XMLID_798_"
             inkscape:connector-curvature="0" />
          <path
             d="m 175,149.161 c 0,-20.239 40.479,-30.359 50.599,0 C 235.719,179.52 175,220 175,220 Z"
             style="fill:#ff9811"
             id="XMLID_799_"
             inkscape:connector-curvature="0" />
        </g>
        <g
           id="XMLID_800_">
          <g
             id="XMLID_801_">
            <rect
               height="70"
               width="45"
               style="fill:#0052b4"
               y="280"
               x="15"
               id="XMLID_44_" />
          </g>
          <rect
             height="70"
             width="45"
             style="fill:#006df0"
             y="210"
             x="15"
             id="XMLID_42_" />
          <path
             d="M 336.772,249.118 C 330.361,238.473 316.535,235.04 305.89,241.45 l -72.64,37.113 c 4.165,-4.083 6.751,-9.771 6.751,-16.064 0,-12.427 -10.074,-22.5 -22.5,-22.5 h -68.21 c -28.289,0 -41.623,-20 -89.291,-20 0,50.345 0,100 0,100 0,0 13,9.001 30,20.001 15.169,9.815 22.29,10 33.837,10 l 74.497,-0.027 c 9.333,0 18.667,-3.973 29,-8.973 10.334,-5 101.771,-61 101.771,-61 10.645,-6.411 14.077,-20.236 7.667,-30.882 z"
             style="fill:#ffd6a0"
             id="XMLID_802_"
             inkscape:connector-curvature="0" />
          <path
             d="m 59.999,220 v 100 c 0,0 13.001,9 30.001,20 15.169,9.815 22.29,10 33.837,10 L 175,349.981 Z"
             style="fill:#ffc170"
             id="XMLID_804_"
             inkscape:connector-curvature="0" />
        </g>
        <g
           id="XMLID_805_">
          <g
             id="XMLID_806_">
            <rect
               height="70"
               width="45"
               style="fill:#0052b4"
               x="290"
               id="XMLID_37_"
               y="0" />
          </g>
          <rect
             height="70"
             width="45"
             style="fill:#006df0"
             y="70"
             x="290"
             id="XMLID_35_" />
          <path
             d="m 13.228,100.882 c 6.411,10.646 20.237,14.078 30.882,7.668 L 116.75,71.437 C 112.586,75.52 110,81.207 110,87.5 c 0,12.427 10.074,22.5 22.5,22.5 h 68.21 c 28.289,0 41.623,20 89.291,20 0,-50.345 0,-100 0,-100 C 290.001,30 277,21 260,10 244.831,0.185 237.71,0 226.163,0 L 151.667,0.027 C 142.334,0.027 133,4 122.667,9 112.333,14 20.896,70 20.896,70 10.25,76.411 6.818,90.236 13.228,100.882 Z"
             style="fill:#ffd6a0"
             id="XMLID_33_"
             inkscape:connector-curvature="0" />
          <path
             d="M 290.001,130 V 30 C 290.001,30 277,21 260,10 244.831,0.185 237.71,0 226.163,0 L 175,0.019 Z"
             style="fill:#ffc170"
             id="XMLID_32_"
             inkscape:connector-curvature="0" />
        </g>
      </g>
      <g
         id="g3715" />
      <g
         id="g3717" />
      <g
         id="g3719" />
      <g
         id="g3721" />
      <g
         id="g3723" />
      <g
         id="g3725" />
      <g
         id="g3727" />
      <g
         id="g3729" />
      <g
         id="g3731" />
      <g
         id="g3733" />
      <g
         id="g3735" />
      <g
         id="g3737" />
      <g
         id="g3739" />
      <g
         id="g3741" />
      <g
         id="g3743" />
    </g>
    <flowRoot
       xml:space="preserve"
       id="flowRoot3801"
       style="font-style:normal;font-weight:normal;font-size:40px;line-height:1.25;font-family:sans-serif;letter-spacing:0px;word-spacing:0px;fill:#000000;fill-opacity:1;stroke:none"
       transform="scale(0.26458333)"><flowRegion
         id="flowRegion3803"><rect
           id="rect3805"
           width="76.842102"
           height="47.36842"
           x="343.1579"
           y="416.20389" /></flowRegion><flowPara
         id="flowPara3807"></flowPara></flowRoot>    <rect
       id="rect3787"
       width="78.373039"
       height="58.277393"
       x="65.264542"
       y="82.77195"
       style="stroke-width:0.58778512" />
    <text
       xml:space="preserve"
       style="font-style:normal;font-weight:normal;font-size:25.45449066px;line-height:1.25;font-family:sans-serif;letter-spacing:0px;word-spacing:0px;fill:#f9f9f9;fill-opacity:1;stroke:none;stroke-width:0.63636231"
       x="106.36121"
       y="120.28387"
       id="text3797"><tspan
         sodipodi:role="line"
         id="tspan3795"
         x="106.36121"
         y="120.28387"
         style="font-style:normal;font-variant:normal;font-weight:normal;font-stretch:normal;font-family:'Bell MT';-inkscape-font-specification:'Bell MT';text-align:center;text-anchor:middle;fill:#f9f9f9;stroke-width:0.63636231">2.5%</tspan></text>
    <ellipse
       style="fill:#f9f9f9;stroke-width:0.63636231"
       id="path3799"
       cx="104.4511"
       cy="111.91061"
       rx="39.18652"
       ry="29.138697" />
    <text
       xml:space="preserve"
       style="font-style:normal;font-weight:normal;font-size:25.45449066px;line-height:1.25;font-family:sans-serif;letter-spacing:0px;word-spacing:0px;writing-mode:lr-tb;fill:#000000;fill-opacity:1;stroke:none;stroke-width:0.63636231"
       x="75.312393"
       y="113.5853"
       id="text3811"><tspan
         sodipodi:role="line"
         id="tspan3809"
         x="75.312393"
         y="113.5853"
         style="font-style:normal;font-variant:normal;font-weight:normal;font-stretch:normal;font-size:27.15146065px;font-family:Shruti;-inkscape-font-specification:Shruti;letter-spacing:-1.31090665px;writing-mode:lr-tb;stroke-width:0.63636231"
         rotate="0 0 0 0 0">2.5%</tspan></text>
    <text
       xml:space="preserve"
       style="font-style:normal;font-weight:normal;font-size:25.45449066px;line-height:1.25;font-family:sans-serif;letter-spacing:0px;word-spacing:0px;fill:#000000;fill-opacity:1;stroke:none;stroke-width:0.63636231"
       x="82.680786"
       y="133.01114"
       id="text3817"><tspan
         sodipodi:role="line"
         id="tspan3815"
         x="82.680786"
         y="133.01114"
         style="font-style:normal;font-variant:normal;font-weight:normal;font-stretch:normal;font-size:16.96965981px;font-family:sans-serif;-inkscape-font-specification:sans-serif;fill:#008000;stroke-width:0.63636231">zakat</tspan></text>
  </g>
</svg>
